<?xml version="1.0" standalone="no"?>
<!DOCTYPE svg PUBLIC "-//W3C//DTD SVG 20010904//EN"
 "http://www.w3.org/TR/2001/REC-SVG-20010904/DTD/svg10.dtd">
<svg version="1.0" xmlns="http://www.w3.org/2000/svg"
 width="567.000000pt" height="248.000000pt" viewBox="0 0 567.000000 248.000000"
 preserveAspectRatio="xMidYMid meet">

<g transform="translate(0.000000,248.000000) scale(0.100000,-0.100000)"
fill="#000000" stroke="none">
<path d="M0 1240 l0 -1240 2835 0 2835 0 0 1240 0 1240 -2835 0 -2835 0 0
-1240z m3102 747 c42 -73 75 -134 73 -135 -6 -7 -315 172 -312 181 3 10 151
95 157 90 3 -3 39 -64 82 -136z m-82 -88 l196 -111 82 -141 c45 -78 80 -143
78 -144 -2 -2 -158 86 -347 195 -189 109 -352 203 -361 208 -15 8 -5 17 60 56
42 25 81 47 86 47 5 1 98 -49 206 -110z m2 -231 c202 -117 368 -215 368 -218
0 -4 -441 -260 -702 -408 l-58 -33 0 435 c0 323 3 436 12 436 6 0 177 -96 380
-212z m-414 -447 l-3 -210 -81 47 -81 46 -7 90 c-3 49 -6 151 -6 227 l0 137
76 134 c42 73 82 139 88 147 12 16 18 -252 14 -618z m-199 37 c1 -71 -1 -128
-4 -128 -9 0 -165 91 -165 96 0 3 35 65 78 139 l77 134 6 -57 c4 -31 7 -114 8
-184z m989 -33 c-7 -7 -95 -60 -195 -119 l-183 -106 -167 2 -168 3 360 208
360 207 3 -92 c2 -65 -1 -95 -10 -103z m9 -222 c-2 -2 -75 -2 -163 -1 l-158 3
159 92 160 93 3 -91 c1 -50 1 -93 -1 -96z m-2373 -368 c31 -41 56 -77 56 -80
0 -15 -31 -2 -48 20 -17 21 -28 25 -70 25 -43 0 -53 -4 -69 -26 -11 -14 -27
-25 -36 -23 -12 3 -3 21 41 81 31 43 60 77 63 78 4 0 32 -34 63 -75z m2556 61
c0 -11 -14 -16 -47 -18 l-48 -3 -3 -63 c-4 -84 -26 -79 -30 6 l-3 62 -44 0
c-33 0 -45 4 -45 15 0 12 19 15 110 15 89 0 110 -3 110 -14z m1124 -61 c31
-41 56 -77 56 -80 0 -15 -31 -2 -48 20 -17 21 -28 25 -70 25 -43 0 -53 -4 -69
-26 -11 -14 -27 -25 -36 -23 -12 3 -3 21 41 81 31 43 60 77 63 78 4 0 32 -34
63 -75z m-4169 54 c12 -19 9 -108 -5 -124 -10 -11 -34 -15 -106 -15 l-94 0 0
75 0 75 99 0 c61 0 102 -4 106 -11z m265 -4 c0 -12 -17 -15 -90 -15 -73 0 -90
-3 -90 -15 0 -12 13 -15 60 -15 47 0 60 -3 60 -15 0 -12 -13 -15 -60 -15 -47
0 -60 -3 -60 -15 0 -12 17 -15 90 -15 73 0 90 -3 90 -15 0 -12 -18 -15 -105
-15 l-105 0 0 75 0 75 105 0 c87 0 105 -3 105 -15z m350 -16 c0 -31 0 -32 41
-25 52 8 79 22 79 41 0 8 7 15 15 15 26 0 16 -38 -16 -63 l-31 -24 23 -17 c13
-9 34 -16 46 -16 14 0 23 -6 23 -15 0 -34 -90 -9 -108 30 -8 17 -16 21 -41 17
-26 -4 -31 -9 -31 -33 0 -19 -5 -29 -15 -29 -12 0 -15 15 -15 75 0 60 3 75 15
75 10 0 15 -10 15 -31z m260 -44 c0 -60 -3 -75 -15 -75 -12 0 -15 15 -15 75 0
60 3 75 15 75 12 0 15 -15 15 -75z m230 30 c0 33 4 45 15 45 12 0 15 -15 15
-71 0 -39 -3 -69 -7 -67 -5 2 -45 22 -90 46 l-83 42 0 -50 c0 -38 -4 -50 -15
-50 -12 0 -15 15 -15 75 l0 75 90 -45 90 -45 0 45z m298 33 c-3 -9 -31 -14
-80 -16 -58 -2 -79 -7 -92 -21 -34 -38 7 -71 90 -71 32 0 44 4 44 15 0 10 -10
15 -30 15 -20 0 -30 5 -30 15 0 11 12 15 48 15 l47 0 0 -45 0 -45 -68 0 c-74
0 -119 17 -138 51 -15 30 -3 66 29 83 35 20 186 22 180 4z m357 -13 c27 -26
31 -46 15 -76 -18 -33 -64 -49 -140 -49 l-70 0 0 75 0 75 85 0 c78 0 88 -2
110 -25z m273 13 c7 -7 12 -33 12 -59 0 -63 -22 -79 -108 -79 -90 0 -102 9
-102 73 0 29 5 58 12 65 7 7 43 12 93 12 50 0 86 -5 93 -12z m115 -38 c21 -27
41 -50 46 -50 20 0 21 35 1 62 -11 15 -20 30 -20 33 0 13 29 3 46 -16 l19 -21
17 22 c10 12 25 20 34 18 14 -3 13 -7 -6 -31 -22 -28 -24 -57 -4 -64 7 -2 28
19 49 47 22 30 44 50 56 50 16 0 9 -14 -37 -75 -31 -41 -59 -75 -62 -75 -4 0
-16 12 -28 27 l-21 26 -23 -31 -23 -31 -32 42 c-94 125 -89 117 -68 117 11 0
34 -21 56 -50z m477 5 c0 33 4 45 15 45 12 0 15 -14 15 -70 0 -38 -2 -70 -4
-70 -2 0 -43 21 -90 46 l-86 46 0 -51 c0 -39 -4 -51 -15 -51 -12 0 -15 15 -15
75 l0 75 90 -45 90 -45 0 45z m500 15 l0 -30 75 0 75 0 0 30 c0 20 5 30 15 30
12 0 15 -15 15 -75 0 -60 -3 -75 -15 -75 -10 0 -15 10 -15 30 l0 30 -75 0 -75
0 0 -30 c0 -23 -4 -30 -20 -30 -18 0 -20 7 -20 75 0 68 2 75 20 75 16 0 20 -7
20 -30z m440 15 c0 -12 -17 -15 -90 -15 -73 0 -90 -3 -90 -15 0 -12 13 -15 60
-15 47 0 60 -3 60 -15 0 -12 -13 -15 -60 -15 -47 0 -60 -3 -60 -15 0 -12 17
-15 90 -15 73 0 90 -3 90 -15 0 -12 -18 -15 -105 -15 l-105 0 0 75 0 75 105 0
c87 0 105 -3 105 -15z m380 0 c0 -12 -15 -15 -73 -15 -61 0 -77 -4 -92 -20
-35 -38 6 -70 91 -70 32 0 44 4 44 15 0 10 -10 15 -30 15 -20 0 -30 5 -30 15
0 11 12 15 45 15 l45 0 0 -45 0 -45 -67 0 c-105 0 -165 50 -133 110 16 30 44
39 128 39 58 1 72 -2 72 -14z m388 -27 l42 -29 43 29 c23 16 48 32 55 36 9 5
12 -11 12 -68 0 -61 -3 -76 -15 -76 -11 0 -15 12 -15 45 0 50 -4 53 -40 25
-14 -11 -32 -20 -40 -20 -8 0 -26 9 -40 20 -36 28 -40 25 -40 -25 0 -33 -4
-45 -15 -45 -12 0 -15 15 -15 76 0 57 3 73 13 68 6 -4 31 -20 55 -36z m412 27
c0 -12 -17 -15 -96 -15 -72 0 -95 -3 -92 -12 3 -8 28 -14 66 -16 46 -2 62 -7
62 -17 0 -12 -15 -15 -66 -15 -48 0 -65 -3 -62 -12 3 -9 34 -14 96 -16 73 -2
92 -6 92 -17 0 -12 -20 -15 -110 -15 l-110 0 0 75 0 75 110 0 c91 0 110 -3
110 -15z"/>
<path d="M2820 1450 c0 -60 3 -110 6 -110 9 0 194 104 194 110 0 6 -183 110
-193 110 -4 0 -7 -49 -7 -110z m140 0 c0 -5 -94 -60 -104 -60 -3 0 -6 29 -6
64 l0 65 55 -32 c30 -17 55 -34 55 -37z"/>
<path d="M956 645 c-4 -11 2 -15 21 -15 21 0 24 2 13 15 -7 8 -16 15 -20 15
-4 0 -10 -7 -14 -15z"/>
<path d="M4636 645 c-4 -11 2 -15 21 -15 21 0 24 2 13 15 -7 8 -16 15 -20 15
-4 0 -10 -7 -14 -15z"/>
<path d="M370 655 c0 -12 15 -15 75 -15 60 0 75 3 75 15 0 12 -15 15 -75 15
-60 0 -75 -3 -75 -15z"/>
<path d="M370 595 c0 -12 15 -15 75 -15 60 0 75 3 75 15 0 12 -15 15 -75 15
-60 0 -75 -3 -75 -15z"/>
<path d="M2142 628 l3 -43 57 -3 c47 -2 61 1 78 18 24 24 25 34 4 54 -11 11
-35 16 -80 16 l-65 0 3 -42z"/>
<path d="M2412 628 l3 -43 70 0 70 0 3 43 3 42 -76 0 -76 0 3 -42z"/>
</g>
</svg>
